# xmcd CD database file
#
# Track frame offsets:
#	150
#	21219
#	45803
#	74943
#	102992
#	127240
#	154148
#	178637
#	200362
#
# Disc length: 2962 seconds
#
# Revision: 0
# Processed by: cddbd v1.5.2PL0 Copyright (c) Steve Scherf et al.
# Submitted via: CDex 1.70beta2
#
DISCID=7e0b9009
DTITLE=Thandiswa - Ibokwe
DYEAR=2009
DGENRE=Jazz
TTITLE0=Thongo Lam(Iyeza)
TTITLE1=Ibokwe (Goat)
TTITLE2=Ngimkonzile  
TTITLE3=Ingoma  
TTITLE4=Izilo
TTITLE5=Vana Vevhu(Funk Afrika)
TTITLE6=Abenguni
TTITLE7=Chom'emdaka
TTITLE8=Vakahina
EXTD=YEAR: 2009
EXTT0=
EXTT1=
EXTT2=
EXTT3=
EXTT4=
EXTT5=
EXTT6=
EXTT7=
EXTT8=
PLAYORDER=
